<svg width="96" height="{{ include.height }}" viewBox="0 0 89 31" xmlns="http://www.w3.org/2000/svg">
  <path d="M16.495 24.695v.13c0 .62.054 1.23.163 1.83.11.602.3 1.148.574 1.64.273.492.647.883 1.12 1.175.474.291 1.075.437 1.804.437 1.202 0 2.331-.382 3.388-1.148.272-.222.586-.5.942-.831-.009.059-.013.118-.013.176 0 .437.182.756.546.956.365.2.729.3 1.093.3.365 0 .865-.41 1.503-1.229.638-.82 1.312-1.73 2.022-2.732a35.714 35.714 0 0 1 2.131-2.733c.71-.82 1.34-1.23 1.886-1.23.182 0 .31.074.382.22.073.145.128.29.164.436.182.802.282 1.722.3 2.76.019 1.038.128 2.013.328 2.924.2.91.583 1.676 1.148 2.295.565.62 1.485.929 2.76.929.874 0 1.73-.3 2.568-.902a11.793 11.793 0 0 0 2.295-2.186c.105-.13.208-.26.31-.393.122.402.283.77.483 1.104a3.38 3.38 0 0 0 1.093 1.12c.455.292 1.01.437 1.666.437.62 0 1.23-.127 1.831-.382a8.556 8.556 0 0 0 1.722-.984c.546-.4 1.056-.847 1.53-1.339.473-.492.874-.974 1.202-1.448.51.838 1.193 1.585 2.05 2.24a4.603 4.603 0 0 0 2.868.984c.875 0 1.667-.227 2.377-.683a8.12 8.12 0 0 0 1.913-1.721c.284-.348.544-.71.782-1.085.056.144.114.287.174.429.438 1.02 1.039 1.876 1.804 2.568.765.693 1.767 1.039 3.005 1.039.875 0 1.75-.246 2.623-.738a9.31 9.31 0 0 0 2.35-1.885c.378-.417.714-.856 1.01-1.316.172.292.363.566.575.824a5.98 5.98 0 0 0 1.858 1.503c.729.382 1.567.573 2.514.573.91 0 1.812-.19 2.705-.573.892-.383 1.74-.875 2.541-1.476a12.256 12.256 0 0 0 2.159-2.076A13.987 13.987 0 0 0 88.3 22.31c.11-.146.164-.346.164-.601 0-.328-.11-.61-.328-.847a1.07 1.07 0 0 0-.82-.355c-.291 0-.482.045-.573.136a7.68 7.68 0 0 0-.41.465c-.401.546-.83 1.102-1.284 1.667a10.857 10.857 0 0 1-1.503 1.53 7.884 7.884 0 0 1-1.776 1.12 5 5 0 0 1-2.104.437c-.838 0-1.54-.237-2.104-.71-.565-.474-.938-1.13-1.12-1.968a6.001 6.001 0 0 0 2.377-.628 7.39 7.39 0 0 0 2.076-1.503 8.287 8.287 0 0 0 1.476-2.076 5.31 5.31 0 0 0 .574-2.405c0-.947-.265-1.73-.793-2.35-.528-.62-1.266-.929-2.213-.929-1.02 0-1.94.283-2.76.847a7.717 7.717 0 0 0-2.076 2.132 10.133 10.133 0 0 0-1.285 2.814 10.726 10.726 0 0 0-.437 2.705c-.328.637-.683 1.339-1.065 2.104A10.98 10.98 0 0 1 70.95 26c-.528.637-1.193.956-1.994.956-.547 0-1.02-.2-1.421-.601-.4-.4-.738-.874-1.011-1.42a9.58 9.58 0 0 1-.656-1.695 16.569 16.569 0 0 1-.355-1.475 47.72 47.72 0 0 0 2.541-3.69 35.78 35.78 0 0 0 2.295-4.289 33.187 33.187 0 0 0 1.667-4.536c.437-1.53.656-2.987.656-4.371 0-.438-.055-.893-.164-1.367a4.589 4.589 0 0 0-.52-1.311 3 3 0 0 0-.928-.984c-.383-.255-.83-.382-1.34-.382-.873 0-1.657.373-2.349 1.12-.692.747-1.302 1.712-1.83 2.896a28.287 28.287 0 0 0-1.394 3.935c-.4 1.439-.72 2.86-.956 4.262a64.372 64.372 0 0 0-.547 3.908c-.127 1.202-.191 2.13-.191 2.787 0 .616.034 1.278.104 1.987-.292.543-.59 1.128-.897 1.756-.346.71-.765 1.366-1.257 1.967-.491.601-1.12.902-1.885.902-.4 0-.765-.128-1.093-.383a4.027 4.027 0 0 1-.874-.956 6.018 6.018 0 0 1-.629-1.23c-.164-.437-.3-.82-.41-1.147.51-1.093 1.03-2.259 1.558-3.498a43.446 43.446 0 0 0 1.42-3.825 34.146 34.146 0 0 0 1.012-3.962c.255-1.33.382-2.596.382-3.798 0-.437-.027-.956-.082-1.557a6.754 6.754 0 0 0-.382-1.722 4.21 4.21 0 0 0-.82-1.393c-.346-.383-.81-.574-1.393-.574s-1.112.219-1.585.656c-.474.437-.902.993-1.284 1.667a10.997 10.997 0 0 0-.957 2.295 48.042 48.042 0 0 0-.683 2.54 28.03 28.03 0 0 0-.464 2.35c-.11.73-.182 1.312-.219 1.75a4.125 4.125 0 0 0-.765-.055c-1.202 0-2.277.437-3.224 1.311-.947.875-1.749 1.931-2.405 3.17a17.643 17.643 0 0 0-1.524 3.965c-.397.727-.818 1.518-1.263 2.374a17.325 17.325 0 0 1-1.584 2.514c-.583.765-1.276 1.147-2.077 1.147-.583 0-.993-.236-1.23-.71-.236-.474-.382-1.057-.437-1.749a40.345 40.345 0 0 1-.11-2.268c-.017-.82-.1-1.575-.245-2.267-.146-.693-.419-1.276-.82-1.75-.4-.473-1.002-.71-1.803-.71-.547 0-1.066.11-1.558.328-.491.219-.974.501-1.448.847-.473.346-.91.72-1.311 1.12-.401.401-.765.784-1.093 1.148 0-.364.009-.902.027-1.612.018-.71-.018-1.412-.11-2.104-.09-.692-.263-1.302-.518-1.83-.255-.529-.656-.793-1.203-.793-.51 0-.929.164-1.256.492-.328.328-.492.747-.492 1.257 0 .583.082 1.175.246 1.776.164.6.246 1.211.246 1.83 0 .174-.007.393-.02.657-.198.347-.446.766-.746 1.256-.4.656-.847 1.293-1.338 1.913a10.952 10.952 0 0 1-1.558 1.612c-.546.455-1.093.683-1.64.683-.327 0-.591-.082-.792-.246a1.232 1.232 0 0 1-.41-.601 3.42 3.42 0 0 1-.136-.792 10.842 10.842 0 0 1 .137-2.65c.109-.638.227-1.258.355-1.859.127-.6.246-1.166.355-1.694.11-.528.164-.993.164-1.393 0-.401-.119-.738-.355-1.011-.237-.274-.556-.41-.957-.41-.619 0-1.102.355-1.448 1.065-.346.71-.61 1.53-.792 2.46a18.4 18.4 0 0 0-.236 1.543l-.229.205c-.346.31-.765.583-1.257.82-.491.237-1.138.355-1.94.355-.291 0-.51-.018-.655-.054.109-.474.164-.984.164-1.53 0-.802-.237-1.503-.71-2.105-.474-.6-1.13-.901-1.968-.901-.583 0-1.12.227-1.612.683-.492.455-.738.993-.738 1.612 0 .729.137 1.439.41 2.131.273.692.72 1.257 1.339 1.694-.146.328-.346.702-.601 1.12a6.11 6.11 0 0 1-.902 1.148c-.346.346-.72.647-1.12.902-.401.255-.784.382-1.148.382-.546 0-.993-.218-1.339-.655a5.062 5.062 0 0 1-.82-1.558 9.16 9.16 0 0 1-.41-1.83c-.072-.62-.109-1.13-.109-1.53a55.148 55.148 0 0 0 3.225-3.416 35.275 35.275 0 0 0 3.114-4.153 26.413 26.413 0 0 0 2.35-4.563c.62-1.567.93-3.097.93-4.59a7.92 7.92 0 0 0-.192-1.695 6.307 6.307 0 0 0-.601-1.64 3.772 3.772 0 0 0-1.066-1.256C10.32.78 9.773.616 9.116.616c-.946 0-1.83.428-2.65 1.284-.82.856-1.557 1.958-2.213 3.306a33.712 33.712 0 0 0-1.776 4.509 52.848 52.848 0 0 0-1.311 4.89 57.783 57.783 0 0 0-.793 4.427C.191 20.38.1 21.437.1 22.202c0 .838.055 1.758.164 2.76.11 1.001.346 1.94.71 2.814a6.18 6.18 0 0 0 1.53 2.213c.656.601 1.53.902 2.624.902.801 0 1.548-.164 2.24-.492a7.351 7.351 0 0 0 1.885-1.284 9.64 9.64 0 0 0 1.503-1.804c.437-.674.82-1.339 1.148-1.994 1.348.218 2.705.082 4.071-.41.179-.065.352-.135.52-.212zM9.718 5.808c0-.146-.01-.337-.027-.574a4.79 4.79 0 0 0-.11-.71 1.782 1.782 0 0 0-.273-.63.602.602 0 0 0-.52-.272c-.473.327-.928.838-1.365 1.53a15.893 15.893 0 0 0-1.23 2.432c-.382.929-.738 1.93-1.065 3.005a95.092 95.092 0 0 0-.902 3.142c-.273 1.02-.501 1.968-.683 2.842-.182.874-.31 1.603-.383 2.186a36.284 36.284 0 0 0 2.323-2.705 23.619 23.619 0 0 0 2.104-3.197c.619-1.13 1.13-2.295 1.53-3.497.4-1.203.601-2.387.601-3.552zm13.115 4.972c0 .802-.273 1.54-.82 2.214-.546.674-1.238 1.01-2.076 1.01-.51 0-.938-.145-1.284-.437-.346-.291-.52-.692-.52-1.202 0-.4.055-.829.165-1.284.109-.455.282-.874.519-1.257.237-.382.537-.701.901-.956a2.137 2.137 0 0 1 1.257-.383c.62 0 1.084.246 1.394.738.31.492.464 1.011.464 1.557zm34.374-2.896c0-.91-.073-1.712-.219-2.404-.437.692-.801 1.53-1.093 2.513a26.015 26.015 0 0 0-.71 3.115 41.53 41.53 0 0 0-.41 3.197 31.986 31.986 0 0 0-.137 2.76c0 .218.01.428.028.628.018.2.027.392.027.574.656-1.53 1.239-3.224 1.749-5.082.51-1.858.765-3.625.765-5.3zM46.44 24.77c0 .219.018.483.055.793.036.31.109.592.218.847.11.255.255.473.437.655.183.183.42.274.71.274.402 0 .82-.173 1.258-.52.437-.346.865-.746 1.284-1.202.419-.455.802-.929 1.148-1.42.346-.492.628-.902.847-1.23a16.006 16.006 0 0 1-.465-2.978 53.734 53.734 0 0 1-.082-3.033v-.219a7.05 7.05 0 0 1-.464-.3.778.778 0 0 0-.465-.137c-.546 0-1.084.337-1.612 1.01-.528.675-1.002 1.476-1.42 2.405a20.998 20.998 0 0 0-1.04 2.815c-.272.947-.409 1.694-.409 2.24zM70.05 5.425c0-.291-.028-.583-.082-.874a1.437 1.437 0 0 0-.41-.765c-.11.036-.273.127-.492.273-.656.62-1.22 1.512-1.694 2.678a23.264 23.264 0 0 0-1.148 3.716 33.034 33.034 0 0 0-.628 3.88 58.48 58.48 0 0 0-.246 3.17 36.46 36.46 0 0 0 1.53-2.624 39.875 39.875 0 0 0 1.53-3.197 27.678 27.678 0 0 0 1.175-3.306c.31-1.093.465-2.077.465-2.951zm10.219 11.804c0-.182-.064-.456-.191-.82-.128-.364-.32-.546-.574-.546a1.99 1.99 0 0 0-1.284.464c-.383.31-.702.692-.957 1.148a7.908 7.908 0 0 0-.628 1.448c-.164.51-.264.947-.3 1.311.29.073.51.11.655.11.364 0 .738-.091 1.12-.273a4.143 4.143 0 0 0 1.066-.738c.328-.31.592-.647.792-1.011.2-.365.3-.729.3-1.093z" fill="#337ab7" fill-rule="evenodd"/>
</svg>
