<svg class="inline-block" xmlns="http://www.w3.org/2000/svg" width="96" viewBox="0 0 477 326">
  <g transform="translate(1 1)" fill="none" fill-rule="evenodd">
    <path d="M265 268s35.506-3.482 79-9c67-8.5 98.093-21.428 105-23.5 5-1.5 3.115-7.65 7.5-10l16 2.5 2 19s-.5 11-51 24.5c-56.893 15.209-78 17.5-143 21.5-1.996.123-15.5-4-15.5-4v-21zM269 4s27.5 5 34 6 14.5.5 14.5.5 40.167 6.333 48.167 8.833S395.834 30.5 398.334 32 417.5 64 423 73s23 41.5 24.5 41 1.317 4.016 1.317 4.016l-83.427 8.17-113.528 6.021-193.945-17.631-52.034-6.021S3.5 94.999 7 80.499c3.787-15.689 10.5-27.5 20-32 2.85-1.35 6.306-2.408 7.5-4 1.5-2 2-6.5 2-6.5s6.5-5 9-7.5 14-6.5 20.5-8.5 58-12 73.5-13.5 71-8.5 84-8C231.51.808 269 4 269 4z" fill="#FFF"/>
    <path d="M45.016 188.972c-3.44 0-14.215-2.38-15.051 4.73-1 8.5-1.464 5.798-1.464 7.798s-.5 21.5 1.5 27 3.5 10 6.5 13.5 5.667 4.667 13.167 3.667 11.5 0 15-6 2.71-6.832 4-19.733c.578-5.778-11.54-4.732-11.611-5.59-.86-10.322-12.041-25.372-12.041-25.372z" fill="#6D6E71"/>
    <path d="M13.624 194.992c-2-2-4.124-13.492-4.124-13.492s-7-1.5-8 2 .5 9.672.5 12.5c0 3 5.5 2.5 8 2.5s5.624-1.508 3.624-3.508z" fill="#BCBEC0"/>
    <path d="M248.5 130.5l23.167 1.833 44-3.333 54.833-3.5L433 119l15-1.5s7 19.624 7 31.167c0 18 2 19.833-4.5 17.333-3.3-1.27-13.5 5.5-13.5 15.5s4 18.5 8.5 19 9.834-.166 9.834-.166L454 235s-49 14-67.5 17.5-65 15-112.5 13.5c-4.498-.142-9.5 0-9 6 .417 5.003-2.5 17.5 5.5 18 2.175.136-6.5 1-6.5 1s-31.593-4.621-42-11c-15.5-9.5-16-27-24.5-47.5-7.34-17.702-5.5-18.5-11.5-21.5s-25.5-5.5-29.5-4.5-6 14-5.5 21 5.5 24 7 25.5-11.5-4-11.5-4l-88.833-34.666s-5.833-20.667-12.333-24.667S25.667 189 25.667 189v11.334S15.218 197.084 10 183.667C5.333 171.667 6.5 108 6.5 108l56.5 7.333 153.667 13L248.5 130.5z" fill="#90CDF4"/>
    <path d="M299.501 145.333S344 139.5 360 138s64.333-6 72.333-7 4.001-.333 7.001.167 1.833 4.333 2.333 8.333c.5 4 1.834 7.333 1.167 8.333-3.606 5.408-1.833 1-5 1.833-4.64 1.221-54.334 8.333-64.334 9.833s-48 4-48 4 1 0-9 1.5-11.666 2.667-15.166.667c-3.5-2-1.833-7-2.333-10.5-.5-3.5.5-9.833.5-9.833z" fill="#FFF"/>
    <path d="M191.5 219.5c-2 0-8.5-.5-13.5 2-6.708 3.354-11.5 9-13 14s-2.235 20.633-3.5 20c-1-.5-8-7.5-9-14s-4.5-16.5-2-26S155 204 158 204s17-.5 20.5 1.5 6 2 8.5 5.5 4.5 8.5 4.5 8.5zM24.667 186S39 185.834 41 187.334c2 1.5-1.5-2.334-5.5 1.166s-8 12-8 15 3-1.666.5-1.166-3.667-1-3.667-1L24.667 186z" fill="#000"/>
    <path d="M299.167 145.167c4.5-1 17.5-1.5 17.5-1.5l7-1S325.5 154 325 158.5s2 4.5-5.5 6-16.5 2.5-19 1.5-1-6.5-1.5-11.5.167-9.333.167-9.333zM440.167 130.5c4.334-.833 9-2.667 11.5-1.167 2.5 1.5.833-.333 1.333 3.667s4 11.5 1.5 14-4.5.5-7.5 1-4.5.5-4.5.5 0-2.5-.5-6-1.833-12-1.833-12z" fill="#FBB040"/>
    <path d="M311.501 184.999s-8.5.5-13 6c-4.478 5.473-5.834 11.001-5.834 15.501s2.833 18.667 12.501 21.166c8.689 2.246 21.61-1.91 24.667-11.334 4-12.333 1.5-20.5-4-26-6.667-6.666-14.334-5.333-14.334-5.333zM454.169 200.333c-3.667 2.667-7.668 1.999-9.668.999-2-1-4.39-4.066-5.667-8.666-1.666-6-.928-12.306.334-15.667 2.001-5.333 3.667-8 7.667-10.667s9.666 1.167 9.666 1.167S459.5 171 460 177s.5 10-1 14.5-4.831 8.833-4.831 8.833z" fill="#E6E7E8"/>
    <path d="M455 225.5l-1 8c-10.5 4.5-18 7-51.5 15.5-28.917 7.337-76.5 13-93 15s-33.5 2.5-36 2.5-7 1-7 1-1 .5-1 2.5v17s3.5 8 38.5 5.5S393.5 280 417.5 273s44-14.5 51.5-19.5c4.852-3.234 5.001-6 5.001-7.5s.999-18-2.501-19-8-1-8-1l-8-.5-.5.5v-7s.5-15 .5-18.5 5.334-8.333 4.834-18.5c-.42-8.548-3.334-13-4.334-14.5-1-1.5-.5-18.5-2-28.5s-4.5-17.5-5.5-21-6.166-12-7.5-13.5c-2.036-2.289-3.333-4.833-3.333-4.833S410 42.5 406 38s-15.5-13.5-45-20-50.5-7.5-50.5-7.5l-5.5.166S292 6 268 3.5 219.073-.98 189 3c-34 4.5-80 10-104 14-18.903 3.15-26.5 6.5-32.5 9.5s-8.5 4.5-10 7L41 36l-4 1.5-1.5 7S27 48 23 51.5L19 55s-6.694 4.578-9.5 15C6 83 6 109.5 6 109.5s2.462 66.994 2 70c-.333 2.167 1 2.167-3.333 2.5-2.685.206-4.167 1.5-3.667 7 .317 3.485.187 6.645 1 8 1.5 2.5 23 4.334 23 4.334l2.5.666s1-4 3-8.5 5-6 9-5.5 8.5 1.5 14 16c5.323 14.032 2.5 9.5 8.5 11.5s63.5 24 73 28 23.5 10 23.5 10-7.5-10-8-19.5-.5-13 1-22c1.04-6.238 2-9.5 11-8.5s20 3 22 5.5 3 2.5 6.5 8 10 26 16.5 42 8 18 16.5 22 38 10.5 38 10.5l11.667-.167" stroke="#000" stroke-width="3"/>
    <path d="M238.5 286.333c.043 6.913-.833 16.334-5.167 25.334-1.455 3.021-3 6.5-8 8.5C220.929 321.929 214.667 323 204 323c-8.81 0-12.65.452-21-6-11-8.5-17.5-25.5-19.5-35.5-1.808-9.04-1.5-18.5-1.5-18.5s0-17.5 2.5-24 3.5-10 10.5-15.5 16.5-3.5 16.5-3.5 5 10 11.5 26.5 8.524 24.481 12 29c5 6.5 23.5 10.833 23.5 10.833zM401.5 277s-2.072 2.346 2 7c3.5 4 8.96 6.532 18 6 8.5-.5 17.767-3.691 21.5-8 6.5-7.5 5.93-14.436 6-15 .5-4 0-4 0-4-17.667 7-19.5 6.5-28 9-5.797 1.705-19.5 5-19.5 5z" stroke="#000" stroke-width="3" fill="#6D6E71"/>
    <path d="M31 191.5s-2.5 6.5-2.5 13.5 0 15 1.5 21 4.806 13.368 7.333 15.334c3 2.333 6.333 4.333 11 4.666 8.493.606 12.918-.178 16.667-7.333 3.667-7 3.333-20.333 3.333-20.333" stroke="#000" stroke-width="3"/>
    <path d="M244 39.5c-1.5 0-3 5.5-3.5 13.5s2 37.5 4.5 46.5 0 18 18 17.5 102.5-4.5 119-5 41.406-4.28 47-6c4.334-1.333 3.667-6 .5-14.5-2.036-5.464-17.166-41.5-21.5-49-3.538-6.122-7-17.5-43-18.5s-62 .5-79 3-27.5 3.5-33.5 6.5-8.5 6-8.5 6z" stroke="#000" stroke-width="4" fill="#F7F9FC"/>
    <ellipse stroke="#000" stroke-width="2" cx="315.5" cy="207.75" rx="13.5" ry="17.75"/>
    <path d="M459.5 184.75c0 8.975-4.253 16.25-9.5 16.25s-9-6.525-9-15.5 4.253-16 9.5-16 9 6.275 9 15.25zM297.5 191.667c-4.478 5.473-4.833 11.666-4.833 16.166s2.5 17 12.167 19.5C313.523 229.58 325.166 227 329 216c4.268-12.243 1.965-20.301-3.666-25.667-10.667-10.166-23.334-4.166-27.834 1.334z" stroke="#000" stroke-width="2"/>
    <path d="M456 167.5s-5.666-3.834-9.666-1.167-5.666 5.334-7.667 10.667c-1.262 3.361-2 9.667-.334 15.667 1.277 4.6 3.667 7.666 5.667 8.666s6.834 1.168 10.501-1.499" stroke="#000" stroke-width="2"/>
    <path d="M202 112.667s21.833 1.667 24.5 1.333c2.667-.334 3.5-.5 4-8.5.314-5.034-1.166-37.167-1.5-46.167-.334-9 0-13-2.666-14s-18 .667-31.334 1C181.666 46.666 165.333 49 165.333 49s-.75-.252-3.333 7.5c-3 9-4.167 15.333-5.5 26-1.333 10.667-1.833 13.833-1.833 18.5s.667 8 2 8.333c1.333.333 19.667 1.333 19.667 1.333M86.5 56l40.833-1.667s11.333-1 13.333-1 2.668 2.198 1.833 6.167c-1.333 6.333-3.166 31.833-5.833 38.5-2.667 6.667-5.666 5.333-21.666 4.333S85 101 77.5 100.5c-4.022-.268-6.092.427-4-10.5 1.5-7.833 3.625-25.565 4.5-29.5 1-4.5 8.5-4.5 8.5-4.5zM29 59s33-1 36.333-1.333c3.333-.333 5 .333 5 2.333S67 86.667 66 91.667s-1 8.333-4.667 8.667c-3.667.334-22.833-1.167-31.833-1.834-7.321-.542-10-.5-10.833-2.167-1.699-3.399-1.334-8.167-.667-11.833.667-3.666 2-13.333 3-17s1.667-7.833 4.5-8c1.488-.087 3.5-.5 3.5-.5z" stroke="#000" stroke-width="3" fill="#F7F9FC"/>
    <path d="M258 107s12.333-4.667 48-9c6.651-.808 23.334.333 23.334.333v2l-13.667-.667s31.001 9 35.667 10.333c4.666 1.333 9.666 2.667 9.666 4 0 1.333-.999 6-3.666 4.667-2.667-1.333-16-10.333-25-12.333S314.833 100.667 310.5 101c-4.333.333-52.5 6-52.5 6zM406.334 95s9 2.333 14.333 5 10.667 6.333 12 7.333c1.333 1 2.333 3 .333 3.667-2 .667-4.999-1.333-7.666-3.667-2.667-2.334-19.667-12-24.667-12.333-5-.333-45.167 1-45.167 1s4.167 0 13.834-1.333 32-2.333 34-2c2 .333 3 2.333 3 2.333z" stroke="#000" stroke-width="2" fill="#000"/>
    <path d="M299.5 145.5c1.167-.5 19.168-2.167 21.834-2.5 2.666-.333 2.667-1 3 2.333.333 3.333 1.666 17.333 1.333 18.333-.333 1-9.677 1.516-15.333 2-5.833.5-9.73 2.182-10.333-.833-.333-1.667-1-7.167-1-11.834s-.668-6.999.499-7.499z" stroke="#000" stroke-width="2"/>
    <path d="M440.167 130.167L442.5 149.5s6.48-.912 8.834-1.5c3.333-.833 3.333.667 3.333-2.333s-1.711-14.258-2.666-16.167c-.834-1.667-4-.5-6.334-.167-2.334.333-5.5.834-5.5.834z" stroke="#000" stroke-width="1.5"/>
    <path d="M322.668 142.667s85.291-9.044 95.666-10c12.666-1.167 22.5-2.5 22.5-2.5M325.667 163.667s16.333-.333 32.667-2.333c12.908-1.58 50.332-6.334 59.666-7.667 9.334-1.333 24.501-4.333 24.501-4.333" stroke="#000" stroke-width="2"/>
    <path d="M330.334 145.5l1 14.667M334.668 145.167l1.333 14.667M339.334 144.667l1.334 14.667M344.168 144.333l1 14.334M349.001 144.167L350.168 158M353.668 143.667l1.333 14.167" stroke="#000"/>
    <path d="M423.056 136.667l.862 13.083M425.939 136.333l1.062 12.834" stroke="#000" stroke-width=".75"/>
    <path d="M429.161 136.167l.849 12.166M432.212 135.667l.764 12M435.266 135.5l1.017 11.666M438.232 135l1.018 11.75" stroke="#000" stroke-width=".756"/>
    <path d="M245.334 37.667C243.834 37.667 19 55 19 55M35.5 44.5v6l131-13s14.5-14 25.5-17 39.5-8 49.5-8.5 68.167-2 68.167-2M234.5 39s0 36 2 55.5 1 22.5 4.5 26.5 10.5 5 12.5 32.5 5 61.5 5 75 2 47.5 2.5 50-30-6.5-37-10.5-12.5-12-19.5-33.5-7-28-21.5-33-40.5-11-40.5-11l1-68.5s-.5-4.5 1.5-8 1.5-6 1.5-6 .554-15.711 2.5-30.5c2.5-19 6.5-32.5 6.5-32.5" stroke="#000" stroke-width="1.5"/>
    <path d="M6 109.5s55 6 68 6.5 90 7.5 101 9 59.5 5 59.5 5l20 2c10 1 70.5-3.5 89.5-4.5s55.722-4.819 69.5-6c17.5-1.5 34.834-4.167 34.834-4.167M76.5 220.5c-1.5-.5-6.5-5.5-8.5-19s-.5-85-.5-85M13.5 119l5.5 1 .5 17.5-6-.5v-18z" stroke="#000" stroke-width="1.5"/>
    <path d="M363 236.5s-.5-3.666 2-4.666c2.166-.866 30.814-6.774 39-8.334 10.5-2 18.5-4 18.5-4s4-1.5 4 4.5c0 2.667 1 9.5 0 11.5S423 238 415 240s-46 9.5-46 9.5-5.332 1.333-5.666-1.667c-.334-3-.334-11.333-.334-11.333z" stroke="#000" stroke-width="1.5" fill="#FFF"/>
    <path d="M172.001 226.667s1.667-3 6.667-4 7.333-.334 10.333 1.333 7.333 6.001 9.333 12.334M212.5 272c1.667 8.333 1.907 9.041.5 21-1 8.5-3.298 15.096-5.5 19.5-3.5 7-8 10.167-11 10.5" stroke="#000" stroke-width="1.5"/>
    <path d="M199.668 273c2.434 20.766-2.337 37.949-11.667 38.667-9.33.72-22.232-16.9-24.667-37.667-2.434-20.767 3.156-38.182 12.485-38.902 9.329-.719 21.414 17.135 23.849 37.902zM48 214.5c1.26 13.987-2.599 26.516-7.815 26.848-5.216.333-10.685-14.848-11.461-24.745-1.099-14 2.391-27.009 7.611-27.27C43.001 189 46.387 196.602 48 214.5z" stroke="#000" stroke-width="2" fill="#FFF"/>
    <path d="M196.001 273.666c0 11.414-3.11 17.834-9.001 17.834s-13.999-8.419-13.999-19.833c0-11.413 5.776-19.334 11.667-19.334s11.333 9.92 11.333 21.333zM45.668 215.667c0 6.719-1.333 12.666-4 12.666-3.958 0-8.667-6.281-8.667-13 0-6.72 3.375-14.666 7.333-14.666 3.959 0 5.334 8.28 5.334 15z" stroke="#000" stroke-width="1.5" fill="#BCBEC0"/>
    <path d="M158.001 146.667l-.333 4.333-14.667-1.667-.001-4 15.001 1.334z" stroke="#000" stroke-width="1.5"/>
    <path d="M410.335 137.833l1.082 13.584M413.559 137.5l1.275 13.333M416.779 137.333l1.14 13.334M419.831 136.833L420.834 150M403.835 138.5l1.082 13.583M407.059 138.167l1.275 13.333M397.335 139.334l1.082 13.583M400.559 139l1.275 13.334" stroke="#000" stroke-width=".75"/>
    <path d="M358.501 143.333l1.333 14.001M363.334 143l1.166 13.834M368.168 142.5l1.333 13.834M373.001 142l1.5 13.667M377.834 141.667L379.168 155M382.668 141l1.166 13.5M387.168 140.667l1.166 13.166" stroke="#000"/>
    <path d="M303.834 144.833L305.5 165.5M267.5 269.5s12.016 3.689 25.5 2.5c17-1.5 86.381-7.888 128-20.5 33-10 42-13.5 47-17s4-5.5 4-5.5" stroke="#000" stroke-width="1.5"/>
    <path d="M8.333 179.334s-.159 3.569 2.126 6.634c.173.231-.313.132-.126.366 2.667 3.334 9.667 10.001 11 10.667L23.666 200l-12-1.333L10.333 187" stroke="#000" stroke-width="2" fill="#000"/>
    <path d="M430.5 269.5s.928 3.752-1 10.5c-2 7-7.5 8.5-15 9M52.333 199.999S54.5 218 53.5 227.5c-.942 8.95-4 14-7.5 16.5s-4 0-4 0" stroke="#000" stroke-width="1.5"/>
    <path d="M193 87.667c6.333 0 6 2 6.667 3.333.667 1.333 1.647 9.299 1.333 14.333-.333 5.333 1.334 10.333-4.333 11.333s-16.333 2.333-18.667 0c-2.321-2.321-1.443-5.944-1.667-14-.194-7.005 0-10.667 1.667-12.667 1.245-1.493 6.66-2.332 15-2.332z" stroke="#000" stroke-width="2" fill="#BCBEC0"/>
    <path d="M187.333 102.667s1-2.333 3-2c2 .333 3 1.667 3.333 2.667.333 1 0 3 0 3s6.333 5 8.333 6.333c2 1.333 3 2.333 3.333 4 .333 1.667 2.334 1.667 3 2C208.998 119 209 124 209 124s-3 .667-4.333-.333c-1.333-1-1-3.333-2.333-5.667-1.333-2.334-3.667-4.333-6-6-2.333-1.667-6-4.667-6-4.667s-1.667 1-2.667-1c-1-2-.334-3.666-.334-3.666z" stroke="#000" stroke-width="2" fill="#BCBEC0"/>
  </g>
</svg>
